# AST/ASF file generated using VICON BodyLanguage
# -----------------------------------------------
:version 1.10
:name VICON
:units
  mass 1.0
  length 0.45
  angle deg
:documentation
   .ast/.asf automatically generated from VICON data using
   VICON BodyBuilder and BodyLanguage model FoxedUp or BRILLIANT.MOD
:root
   order TX TY TZ RX RY RZ
   axis XYZ
   position 0 0 0  
   orientation 0 0 0 
:bonedata
  begin
     id 1 
     name lhipjoint
     direction 0.602128 -0.715006 0.355257 
     length 2.21237 
     axis 0 0 0  XYZ
  end
  begin
     id 2 
     name lfemur
     direction 0.34202 -0.939693 0  
     length 6.71649  
     axis 0 0 20  XYZ
    dof rx ry rz
    limits (-160.0 20.0)
           (-70.0 70.0)
           (-60.0 70.0)
  end
  begin
     id 3 
     name ltibia
     direction 0.34202 -0.939693 0   
     length 6.97123   
     axis 0 0 20   XYZ
    dof rx
    limits (-10.0 170.0)
  end
  begin
     id 4 
     name lfoot
     direction 0.0655697 -0.180151 0.981451   
     length 1.80924   
     axis -90 7.62852e-016 20   XYZ
    dof rx rz
    limits (-45.0 90.0)
           (-70.0 20.0)
  end
  begin
     id 5 
     name ltoes
     direction 1.53545e-011 -4.21827e-011 1   
     length 0.916331   
     axis -90 7.62852e-016 20   XYZ
    dof rx
    limits (-90.0 20.0)
  end
  begin
     id 6 
     name rhipjoint
     direction -0.625414 -0.698792 0.347201   
     length 2.2637  
     axis 0 0 0  XYZ 
  end
  begin
     id 7 
     name rfemur
     direction -0.34202 -0.939693 0   
     length 7.07595   
     axis 0 0 -20   XYZ
    dof rx ry rz
    limits (-160.0 20.0)
           (-70.0 70.0)
           (-70.0 60.0)
  end
  begin
     id 8 
     name rtibia
     direction -0.34202 -0.939693 0   
     length 7.22924   
     axis 0 0 -20   XYZ
    dof rx
    limits (-10.0 170.0)
 end
 begin
     id 9 
     name rfoot
     direction -0.0766747 -0.210662 0.974547   
     length 1.98482  
     axis -90 -7.62852e-016 -20   XYZ
    dof rx rz
    limits (-45.0 90.0)
           (-20.0 70.0)
  end
  begin
     id 10 
     name rtoes
     direction -1.53532e-011 -4.21867e-011 1   
     length 0.999842   
     axis -90 -7.62852e-016 -20   XYZ
    dof rx
    limits (-90.0 20.0)
  end
  begin
     id 11 
     name lowerback
     direction -0.0224668 0.997354 -0.0691422   
     length 2.09945   
     axis 0 0 0   XYZ
    dof rx ry rz
    limits (-20.0 45.0)
           (-30.0 30.0)
           (-30.0 30.0)
  end
  begin
     id 12 
     name upperback
     direction 0.0134698 0.998451 -0.0539888   
     length 2.09758   
     axis 0 0 0   XYZ
    dof rx ry rz
    limits (-20.0 45.0)
           (-30.0 30.0)
           (-30.0 30.0)
  end
  begin
     id 13 
     name thorax
     direction 0.0241905 0.99948 -0.0213333   
     length 2.10428   
     axis 0 0 0   XYZ
    dof rx ry rz
    limits (-20.0 45.0)
           (-30.0 30.0)
           (-30.0 30.0)
  end
  begin
     id 14 
     name lowerneck
     direction -0.00866847 0.995978 0.0891737   
     length 1.3959   
     axis 0 0 0   XYZ
    dof rx ry rz
    limits (-20.0 45.0)
           (-30.0 30.0)
           (-30.0 30.0)
  end
  begin
     id 15 
     name upperneck
     direction 0.0680679 0.992203 0.104404   
     length 1.39452   
     axis 0 0 0   XYZ
    dof rx ry rz
    limits (-20.0 45.0)
           (-30.0 30.0)
           (-30.0 30.0)
  end
  begin
     id 16
     name head
     direction 0.0242216 0.999358 0.0264054  
     length 1.40433  
     axis 0 0 0   XYZ
    dof rx ry rz
    limits (-20.0 45.0)
           (-30.0 30.0)
           (-30.0 30.0)
  end
  begin
     id 17 
     name lclavicle
     direction 0.929368 0.362991 -0.0671771  
     length 3.04887  
     axis 0 0 0   XYZ
    dof ry rz
    limits (-20.0 10.0)
           (0.0 20.0)
  end
  begin
     id 18 
     name lhumerus
     direction 1 -4.48967e-011 -7.13741e-028   
     length 4.77195   
     axis -180 -30 -90   XYZ
    dof rx ry rz
    limits (-60.0 90.0)
           (-90.0 90.0)
           (-90.0 90.0)
  end
  begin
     id 19
     name lradius
     direction 1 -4.48977e-011 3.60404e-027   
     length 2.98444   
     axis -180 -30 -90   XYZ
    dof rx
    limits (-10.0 170.0)
  end
  begin
     id 20
     name lwrist
     direction 1 -4.48997e-011 7.54877e-027   
     length 1.49222   
     axis -7.18178e-015 90 90   XYZ
    dof ry
    limits (-180.0 0.0)
 end
  begin
     id 21 
     name lhand
     direction 1 -4.489e-011 1.51105e-026   
     length 0.992285   
     axis -9.63605e-015 90 90   XYZ
    dof rx rz
    limits (-90.0 90.0)
           (-45.0 45.0)
  end
  begin
     id 22 
     name lfingers
     direction 1 -4.48998e-011 3.01948e-026   
     length 0.800006   
     axis -1.92718e-014 90 90   XYZ
    dof rx
    limits (0.0 90.0)
  end
  begin
     id 23
     name lthumb
     direction 0.707107 -6.34881e-011 0.707107   
     length 1.14865   
     axis -90 45 -3.53137e-014   XYZ
    dof rx rz
    limits (-45.0 45.0)
           (-45.0 45.0)
  end
  begin
     id 24 
     name rclavicle
     direction -0.945672 0.324529 0.0196374   
     length 3.4236  
     axis 0 0 0   XYZ 
    dof ry rz
    limits (-10.0 20.0)
           (-20.0 0.0)
  end
  begin
     id 25 
     name rhumerus
     direction -1 -4.4896e-011 1.02757e-029  
     length 4.62052   
     axis -180 30 90   XYZ
    dof rx ry rz
    limits (-90.0 60.0)
           (-90.0 90.0)
           (-90.0 90.0)
  end
  begin
     id 26 
     name rradius
     direction -1 -4.48982e-011 3.85962e-027   
     length 2.95332   
     axis -180 30 90   XYZ
    dof rx
    limits (-10.0 170.0)
  end
  begin
     id 27 
     name rwrist
     direction -1 -4.48961e-011 7.55118e-027   
     length 1.47666   
     axis -7.18178e-015 -90 -90   XYZ
    dof ry
    limits (-180.0 0.0)
  end
  begin
     id 28
     name rhand
     direction -1 -4.48984e-011 1.50994e-026   
     length 0.990956   
     axis -9.63605e-015 -90 -90   XYZ
    dof rx rz
    limits (-90.0 90.0)
           (-45.0 45.0)
  end
  begin
     id 29
     name rfingers
     direction -1 -4.4892e-011 3.02158e-026   
     length 0.798934   
     axis -1.92718e-014 -90 -90   XYZ
    dof rx
    limits (0.0 90.0)
  end
  begin
     id 30
     name rthumb
     direction -0.707107 -6.34916e-011 0.707107   
     length 1.14711   
     axis -90 -45 3.53137e-014   XYZ
    dof rx rz
    limits (-45.0 45.0)
           (-45.0 45.0)
  end
:hierarchy
  begin
    root lhipjoint rhipjoint lowerback
    lhipjoint lfemur
    lfemur ltibia
    ltibia lfoot
    lfoot ltoes
    rhipjoint rfemur
    rfemur rtibia
    rtibia rfoot
    rfoot rtoes
    lowerback upperback
    upperback thorax
    thorax lowerneck lclavicle rclavicle
    lowerneck upperneck
    upperneck head
    lclavicle lhumerus
    lhumerus lradius
    lradius lwrist
    lwrist lhand lthumb
    lhand lfingers
    rclavicle rhumerus
    rhumerus rradius
    rradius rwrist
    rwrist rhand rthumb
    rhand rfingers
  end

#!OML:ASF H:\ManfredObstacles\Project 1\Capture day 1\Session 1\Male.ASF
:FULLY-SPECIFIED
:DEGREES
125
root -10.5733 16.0003 39.6077 -168.727 -9.24528 -178.169
lowerback -9.67826 -3.02891 -1.97532
upperback 0.517408 -4.0142 2.50266
thorax 6.29413 -2.10517 3.12776
lowerneck -0.657634 -2.55628 -5.61546
upperneck -9.5911 -3.30478 10.4232
head -2.4358 -2.02953 4.14312
rclavicle 2.3556e-014 6.55989e-015
rhumerus -41.2072 -30.8791 -67.5759
rradius 22.1631
rwrist 39.9824
rhand -1.16646 -6.47482
rfingers 7.12502
rthumb 24.4726 -34.9314
lclavicle 2.3556e-014 6.55989e-015
lhumerus -25.7393 11.8618 87.1255
lradius 18.1023
lwrist -30.5454
lhand -7.29832 13.4164
lfingers 7.12502
lthumb 18.5839 42.5487
rfemur -34.4846 1.01394 19.87
rtibia 37.0829
rfoot -17.7517 4.57316
rtoes 7.81288
lfemur 5.40057 -9.93445 -17.1441
ltibia 3.49861e-014
lfoot -6.4158 -4.36887
ltoes 26.8834
126
root -10.5206 15.9962 39.5008 -168.813 -9.15807 -177.959
lowerback -9.65252 -3.08964 -1.75664
upperback 0.55829 -4.12683 2.55563
thorax 6.31949 -2.15588 3.04286
lowerneck -0.695078 -2.47621 -5.62612
upperneck -9.5262 -3.20121 10.3212
head -2.42114 -1.97016 4.11074
rclavicle 1.4884e-014 -1.5704e-014
rhumerus -41.4622 -30.9974 -67.3439
rradius 22.0528
rwrist 40.0517
rhand -1.18993 -6.35042
rfingers 7.12502
rthumb 24.4501 -34.81
lclavicle 1.4884e-014 -1.5704e-014
lhumerus -25.6714 12.2012 86.9114
lradius 18.0833
lwrist -30.6327
lhand -7.0418 13.3218
lfingers 7.12502
lthumb 18.8306 42.4304
rfemur -34.0358 1.47127 20.2828
rtibia 37.0753
rfoot -18.0751 4.28922
rtoes 6.59803
lfemur 5.91522 -9.82036 -16.741
ltibia -7.63333e-014
lfoot -5.83457 -4.0878
ltoes 25.3678
127
root -10.4693 15.9897 39.3858 -169.038 -8.91609 -177.752
lowerback -9.52873 -3.05976 -1.51681
upperback 0.622227 -4.11849 2.57795
thorax 6.30073 -2.14525 2.93734
lowerneck -0.609409 -3.10327 -5.58448
upperneck -9.38578 -3.00432 10.255
head -2.39897 -1.409 4.0594
rclavicle -1.57537e-014 1.90833e-014
rhumerus -41.751 -31.1816 -67.0152
rradius 21.8256
rwrist 40.2063
rhand -1.19937 -6.30282
rfingers 7.12502
rthumb 24.4411 -34.7637
lclavicle -1.57537e-014 1.90833e-014
lhumerus -25.6986 12.0999 86.8322
lradius 18.1327
lwrist -30.6147
lhand -7.02821 13.3599
lfingers 7.12502
lthumb 18.8437 42.4672
rfemur -33.4572 1.70779 20.8357
rtibia 36.9584
rfoot -18.6452 4.23807
rtoes 7.18903
lfemur 6.56411 -9.57103 -16.3336
ltibia -3.18055e-015
lfoot -5.2025 -3.99488
ltoes 23.9169
128
root -10.4217 15.9901 39.2607 -169.608 -8.53961 -177.721
lowerback -9.16152 -2.94738 -1.36118
upperback 0.811729 -3.97523 2.45789
thorax 6.26312 -2.06615 2.75924
lowerneck -0.582657 -3.08102 -5.57317
upperneck -9.26377 -3.00045 10.1899
head -2.36961 -1.40997 4.03621
rclavicle 1.08586e-014 1.96797e-014
rhumerus -42.1858 -31.7666 -66.5077
rradius 21.5739
rwrist 40.6937
rhand -1.09903 -6.30223
rfingers 7.12502
rthumb 24.5373 -34.7501
lclavicle 1.08586e-014 1.96797e-014
lhumerus -25.7153 11.6028 86.7998
lradius 18.2316
lwrist -30.3476
lhand -7.10643 13.3228
lfingers 7.12502
lthumb 18.7685 42.4374
rfemur -32.3496 1.80509 21.2066
rtibia 36.7753
rfoot -19.2195 4.61731
rtoes 8.95664
lfemur 5.33956 -9.25968 -16.1868
ltibia 4.54723
lfoot -6.38678 -4.90404
ltoes 23.3262
129
root -10.3632 15.999 39.1414 -169.633 -8.19871 -177.829
lowerback -9.20387 -2.89553 -1.32798
upperback 0.831937 -3.89194 2.26997
thorax 6.28689 -2.01784 2.55377
lowerneck -0.637455 -3.01374 -5.49459
upperneck -8.78995 -2.98679 9.81246
head -2.49258 -1.37445 4.32214
rclavicle -2.67117e-015 -1.98785e-016
rhumerus -42.6903 -32.5027 -65.9938
rradius 21.3158
rwrist 41.3792
rhand -0.969568 -6.0709
rfingers 7.12502
rthumb 24.6614 -34.5018
lclavicle -2.67117e-015 -1.98785e-016
lhumerus -25.747 11.2249 86.5591
lradius 18.3401
lwrist -29.9903
lhand -7.04613 13.1608
lfingers 7.12502
lthumb 18.8265 42.2697
rfemur -31.7586 1.94619 21.3944
rtibia 36.5354
rfoot -19.5574 5.03598
rtoes 10.0854
lfemur 3.40757 -8.96615 -16.1305
ltibia 9.29953
lfoot -7.22375 -5.50835
ltoes 23.6879
130
root -10.3021 16.0077 39.0189 -169.736 -7.7975 -177.95
lowerback -9.17727 -2.90969 -1.43437
upperback 0.89136 -3.8902 2.18381
thorax 6.33554 -2.01797 2.5233
lowerneck -0.715142 -2.88092 -5.49834
upperneck -8.53437 -2.84949 9.68344
head -2.40545 -1.30756 4.26652
rclavicle 3.05259e-014 2.98177e-016
rhumerus -42.8051 -32.6984 -65.7884
rradius 21.0792
rwrist 41.7906
rhand -0.891605 -5.85664
rfingers 7.12502
rthumb 24.7361 -34.2773
lclavicle 3.05259e-014 2.98177e-016
lhumerus -25.8275 11.4521 86.2338
lradius 18.4255
lwrist -30.0691
lhand -6.94571 12.8207
lfingers 7.12502
lthumb 18.923 41.9203
rfemur -31.0701 2.19788 21.5626
rtibia 36.2757
rfoot -19.936 5.31202
rtoes 10.6311
lfemur 2.08882 -8.60719 -16.1924
ltibia 13.1602
lfoot -7.37475 -5.56617
ltoes 22.3158
131
root -10.2407 16.0231 38.8947 -169.793 -7.47287 -178.124
lowerback -9.17837 -2.96321 -1.62636
upperback 0.926317 -3.93516 2.14316
thorax 6.38632 -2.04541 2.58066
lowerneck -0.688315 -2.72394 -5.64162
upperneck -8.41715 -2.67369 9.56271
head -2.38635 -1.21993 4.24809
rclavicle 8.46077e-015 -2.57426e-014
rhumerus -42.7009 -32.6621 -65.7672
rradius 20.8901
rwrist 42.0581
rhand -0.882244 -5.72984
rfingers 7.12502
rthumb 24.7451 -34.1493
lclavicle 8.46077e-015 -2.57426e-014
lhumerus -25.965 11.7077 86.0108
lradius 18.635
lwrist -30.1552
lhand -6.80061 12.6124
lfingers 7.12502
lthumb 19.0626 41.6982
rfemur -30.3639 2.27574 21.7002
rtibia 35.944
rfoot -20.1718 5.52571
rtoes 10.6884
lfemur 0.588961 -8.6447 -16.2999
ltibia 17.1985
lfoot -7.37351 -5.08397
ltoes 21.0084
132
root -10.1787 16.0371 38.7699 -169.77 -7.07209 -178.363
lowerback -9.23071 -2.92664 -1.72564
upperback 0.891718 -3.8555 1.93264
thorax 6.3657 -2.00252 2.42622
lowerneck -0.592464 -2.61073 -5.58724
upperneck -8.2873 -2.55436 9.44378
head -2.37244 -1.16729 4.19292
rclavicle -6.1499e-016 -2.33572e-015
rhumerus -42.8833 -32.8926 -65.7437
rradius 20.7885
rwrist 42.2728
rhand -0.810973 -5.68911
rfingers 7.12502
rthumb 24.8134 -34.0992
lclavicle -6.1499e-016 -2.33572e-015
lhumerus -26.2842 11.0451 85.8594
lradius 19.189
lwrist -29.4308
lhand -6.52847 12.9829
lfingers 7.12502
lthumb 19.3243 42.0428
rfemur -29.7084 2.20886 21.7888
rtibia 35.5009
rfoot -21.5573 6.13633
rtoes 14.9485
lfemur -1.25069 -8.69903 -16.4766
ltibia 21.4984
lfoot -6.96323 -4.35017
ltoes 21.6131
133
root -10.1163 16.0533 38.6435 -169.798 -6.62711 -178.644
lowerback -9.25243 -2.87049 -1.8091
upperback 0.887088 -3.74665 1.65085
thorax 6.35198 -1.94332 2.19353
lowerneck -0.589052 -2.51786 -5.41391
upperneck -8.00477 -2.47302 9.29031
head -2.28789 -1.13504 4.09615
rclavicle 2.27702e-014 -6.48535e-015
rhumerus -43.0845 -32.9457 -65.941
rradius 20.8528
rwrist 42.1351
rhand -0.796334 -5.76219
rfingers 7.12502
rthumb 24.8274 -34.1703
lclavicle 2.27702e-014 -6.48535e-015
lhumerus -26.6403 10.0414 85.7267
lradius 19.8446
lwrist -28.2468
lhand -6.32901 13.4374
lfingers 7.12502
lthumb 19.5161 42.478
rfemur -28.9558 2.13392 21.8378
rtibia 34.9795
rfoot -21.9458 6.75129
rtoes 16.8828
lfemur -3.22018 -8.5528 -16.719
ltibia 26.063
lfoot -6.11612 -3.19201
ltoes 23.4296
134
root -10.0553 16.0754 38.5189 -169.88 -6.25989 -178.882
lowerback -9.24561 -2.85448 -1.90053
upperback 0.967283 -3.69728 1.4448
thorax 6.42182 -1.91706 2.03485
lowerneck -0.63815 -2.3945 -5.33058
upperneck -7.82028 -2.33892 9.12136
head -2.23023 -1.07042 4.01293
rclavicle -2.15122e-014 9.01985e-015
rhumerus -42.9936 -32.7991 -66.3028
rradius 20.9915
rwrist 41.8286
rhand -0.746309 -5.87553
rfingers 7.12502
rthumb 24.8753 -34.2771
lclavicle -2.15122e-014 9.01985e-015
lhumerus -26.7682 9.69489 85.5133
lradius 20.2184
lwrist -27.538
lhand -6.33498 13.4319
lfingers 7.12502
lthumb 19.5103 42.473
rfemur -28.0887 2.03068 21.909
rtibia 34.3954
rfoot -21.7856 7.64005
rtoes 18.6589
lfemur -5.39247 -8.03417 -16.8755
ltibia 30.8638
lfoot -4.59425 -1.83669
ltoes 22.115
